<?xml version="1.0" standalone="no"?>
<!DOCTYPE svg PUBLIC "-//W3C//DTD SVG 20010904//EN"
 "http://www.w3.org/TR/2001/REC-SVG-20010904/DTD/svg10.dtd">
<svg version="1.0" xmlns="http://www.w3.org/2000/svg"
 width="90.000000pt" height="90.000000pt" viewBox="0 0 90.000000 90.000000"
 preserveAspectRatio="xMidYMid meet">
<metadata>
Created by potrace 1.14, written by Peter Selinger 2001-2017
</metadata>
<g transform="translate(0.000000,90.000000) scale(0.100000,-0.100000)"
fill="#000000" stroke="none">
<path d="M0 450 l0 -450 450 0 450 0 0 450 0 450 -450 0 -450 0 0 -450z m568
213 c-3 -15 -18 -19 -93 -23 l-90 -5 -3 -57 -3 -58 80 0 c81 0 96 -6 85 -34
-5 -13 -22 -16 -85 -16 l-79 0 0 -60 0 -60 89 0 c65 0 92 -4 101 -15 23 -28 0
-35 -121 -35 l-119 0 0 190 0 190 121 0 c109 0 120 -2 117 -17z"/>
</g>
</svg>
